;Layer: Drill PTH
;EasyEDA v6.4.5, 2020-08-30T14:37:43--7:00
;dc7f05a9bb8944a7a08d3473b19a6fd7,99402a404acd4bfc96e7e4cce154ab38,10
;Gerber Generator version 0.2
M48
METRIC,LZ,000.000
;Holesize 1 = 0.305 METRIC
T01C0.305
;Holesize 2 = 0.610 METRIC
T02C0.610
;Holesize 3 = 1.016 METRIC
T03C1.016
;Holesize 4 = 3.200 METRIC
T04C3.200
%
G05
G90
T01
X+317241Y+016269
X+006952Y+017018
X+454245Y+014986
X+317241Y+018809
X+007206Y+021082
X+454245Y+018796
X+317749Y+006109
X+005555Y+010101
X+457547Y+012573
T02
X+238999Y+027499
X+242999Y+010999
X+238999Y+001999
X+252443Y+011938
X+265143Y+011684
X+300499Y+011500
X+302499Y+027499
X+260999Y+027499
X+260999Y+002999
X+302499Y+001999
X+253499Y+013499
X+255999Y+013499
X+300896Y+015999
X+266864Y+015999
X+249999Y+008999
X+251499Y+008999
T03
X+140269Y+006107G85X+140269Y+006112
X+137729Y+006107G85X+137729Y+006112
X+140269Y+008647G85X+140269Y+008652
X+137729Y+008647G85X+137729Y+008652
X+140269Y+011187G85X+140269Y+011192
X+137729Y+011187G85X+137729Y+011192
X+140269Y+013727G85X+140269Y+013732
X+137729Y+013727G85X+137729Y+013732
X+140269Y+016267G85X+140269Y+016272
X+137729Y+016267G85X+137729Y+016272
X+140269Y+018807G85X+140269Y+018812
X+137729Y+018807G85X+137729Y+018812
X+140269Y+021347G85X+140269Y+021352
X+137729Y+021347G85X+137729Y+021352
X+140269Y+023887G85X+140269Y+023892
X+137729Y+023887G85X+137729Y+023892
X+155269Y+006107G85X+155269Y+006112
X+152729Y+006107G85X+152729Y+006112
X+155269Y+008647G85X+155269Y+008652
X+152729Y+008647G85X+152729Y+008652
X+155269Y+011187G85X+155269Y+011192
X+152729Y+011187G85X+152729Y+011192
X+155269Y+013727G85X+155269Y+013732
X+152729Y+013727G85X+152729Y+013732
X+155269Y+016267G85X+155269Y+016272
X+152729Y+016267G85X+152729Y+016272
X+155269Y+018807G85X+155269Y+018812
X+152729Y+018807G85X+152729Y+018812
X+155269Y+021347G85X+155269Y+021352
X+152729Y+021347G85X+152729Y+021352
X+155269Y+023887G85X+155269Y+023892
X+152729Y+023887G85X+152729Y+023892
X+175269Y+006107G85X+175269Y+006112
X+172729Y+006107G85X+172729Y+006112
X+175269Y+008647G85X+175269Y+008652
X+172729Y+008647G85X+172729Y+008652
X+175269Y+011187G85X+175269Y+011192
X+172729Y+011187G85X+172729Y+011192
X+175269Y+013727G85X+175269Y+013732
X+172729Y+013727G85X+172729Y+013732
X+175269Y+016267G85X+175269Y+016272
X+172729Y+016267G85X+172729Y+016272
X+175269Y+018807G85X+175269Y+018812
X+172729Y+018807G85X+172729Y+018812
X+175269Y+021347G85X+175269Y+021352
X+172729Y+021347G85X+172729Y+021352
X+175269Y+023887G85X+175269Y+023892
X+172729Y+023887G85X+172729Y+023892
X+190269Y+006107G85X+190269Y+006112
X+187729Y+006107G85X+187729Y+006112
X+190269Y+008647G85X+190269Y+008652
X+187729Y+008647G85X+187729Y+008652
X+190269Y+011187G85X+190269Y+011192
X+187729Y+011187G85X+187729Y+011192
X+190269Y+013727G85X+190269Y+013732
X+187729Y+013727G85X+187729Y+013732
X+190269Y+016267G85X+190269Y+016272
X+187729Y+016267G85X+187729Y+016272
X+190269Y+018807G85X+190269Y+018812
X+187729Y+018807G85X+187729Y+018812
X+190269Y+021347G85X+190269Y+021352
X+187729Y+021347G85X+187729Y+021352
X+190269Y+023887G85X+190269Y+023892
X+187729Y+023887G85X+187729Y+023892
X+205269Y+006107G85X+205269Y+006112
X+202729Y+006107G85X+202729Y+006112
X+205269Y+008647G85X+205269Y+008652
X+202729Y+008647G85X+202729Y+008652
X+205269Y+011187G85X+205269Y+011192
X+202729Y+011187G85X+202729Y+011192
X+205269Y+013727G85X+205269Y+013732
X+202729Y+013727G85X+202729Y+013732
X+205269Y+016267G85X+205269Y+016272
X+202729Y+016267G85X+202729Y+016272
X+205269Y+018807G85X+205269Y+018812
X+202729Y+018807G85X+202729Y+018812
X+205269Y+021347G85X+205269Y+021352
X+202729Y+021347G85X+202729Y+021352
X+205269Y+023887G85X+205269Y+023892
X+202729Y+023887G85X+202729Y+023892
X+125269Y+006107G85X+125269Y+006112
X+122729Y+006107G85X+122729Y+006112
X+125269Y+008647G85X+125269Y+008652
X+122729Y+008647G85X+122729Y+008652
X+125269Y+011187G85X+125269Y+011192
X+122729Y+011187G85X+122729Y+011192
X+125269Y+013727G85X+125269Y+013732
X+122729Y+013727G85X+122729Y+013732
X+125269Y+016267G85X+125269Y+016272
X+122729Y+016267G85X+122729Y+016272
X+125269Y+018807G85X+125269Y+018812
X+122729Y+018807G85X+122729Y+018812
X+125269Y+021347G85X+125269Y+021352
X+122729Y+021347G85X+122729Y+021352
X+125269Y+023887G85X+125269Y+023892
X+122729Y+023887G85X+122729Y+023892
X+110269Y+006107G85X+110269Y+006112
X+107729Y+006107G85X+107729Y+006112
X+110269Y+008647G85X+110269Y+008652
X+107729Y+008647G85X+107729Y+008652
X+110269Y+011187G85X+110269Y+011192
X+107729Y+011187G85X+107729Y+011192
X+110269Y+013727G85X+110269Y+013732
X+107729Y+013727G85X+107729Y+013732
X+110269Y+016267G85X+110269Y+016272
X+107729Y+016267G85X+107729Y+016272
X+110269Y+018807G85X+110269Y+018812
X+107729Y+018807G85X+107729Y+018812
X+110269Y+021347G85X+110269Y+021352
X+107729Y+021347G85X+107729Y+021352
X+110269Y+023887G85X+110269Y+023892
X+107729Y+023887G85X+107729Y+023892
X+095269Y+006107G85X+095269Y+006112
X+092729Y+006107G85X+092729Y+006112
X+095269Y+008647G85X+095269Y+008652
X+092729Y+008647G85X+092729Y+008652
X+095269Y+011187G85X+095269Y+011192
X+092729Y+011187G85X+092729Y+011192
X+095269Y+013727G85X+095269Y+013732
X+092729Y+013727G85X+092729Y+013732
X+095269Y+016267G85X+095269Y+016272
X+092729Y+016267G85X+092729Y+016272
X+095269Y+018807G85X+095269Y+018812
X+092729Y+018807G85X+092729Y+018812
X+095269Y+021347G85X+095269Y+021352
X+092729Y+021347G85X+092729Y+021352
X+095269Y+023887G85X+095269Y+023892
X+092729Y+023887G85X+092729Y+023892
X+235269Y+006107G85X+235269Y+006112
X+232729Y+006107G85X+232729Y+006112
X+235269Y+008647G85X+235269Y+008652
X+232729Y+008647G85X+232729Y+008652
X+235269Y+011187G85X+235269Y+011192
X+232729Y+011187G85X+232729Y+011192
X+235269Y+013727G85X+235269Y+013732
X+232729Y+013727G85X+232729Y+013732
X+235269Y+016267G85X+235269Y+016272
X+232729Y+016267G85X+232729Y+016272
X+235269Y+018807G85X+235269Y+018812
X+232729Y+018807G85X+232729Y+018812
X+235269Y+021347G85X+235269Y+021352
X+232729Y+021347G85X+232729Y+021352
X+235269Y+023887G85X+235269Y+023892
X+232729Y+023887G85X+232729Y+023892
X+309269Y+006107G85X+309269Y+006112
X+306729Y+006107G85X+306729Y+006112
X+309269Y+008647G85X+309269Y+008652
X+306729Y+008647G85X+306729Y+008652
X+309269Y+011187G85X+309269Y+011192
X+306729Y+011187G85X+306729Y+011192
X+309269Y+013727G85X+309269Y+013732
X+306729Y+013727G85X+306729Y+013732
X+309269Y+016267G85X+309269Y+016272
X+306729Y+016267G85X+306729Y+016272
X+309269Y+018807G85X+309269Y+018812
X+306729Y+018807G85X+306729Y+018812
X+309269Y+021347G85X+309269Y+021352
X+306729Y+021347G85X+306729Y+021352
X+309269Y+023887G85X+309269Y+023892
X+306729Y+023887G85X+306729Y+023892
X+220269Y+006107G85X+220269Y+006112
X+217729Y+006107G85X+217729Y+006112
X+220269Y+008647G85X+220269Y+008652
X+217729Y+008647G85X+217729Y+008652
X+220269Y+011187G85X+220269Y+011192
X+217729Y+011187G85X+217729Y+011192
X+220269Y+013727G85X+220269Y+013732
X+217729Y+013727G85X+217729Y+013732
X+220269Y+016267G85X+220269Y+016272
X+217729Y+016267G85X+217729Y+016272
X+220269Y+018807G85X+220269Y+018812
X+217729Y+018807G85X+217729Y+018812
X+220269Y+021347G85X+220269Y+021352
X+217729Y+021347G85X+217729Y+021352
X+220269Y+023887G85X+220269Y+023892
X+217729Y+023887G85X+217729Y+023892
X+419269Y+006107G85X+419269Y+006112
X+416729Y+006107G85X+416729Y+006112
X+419269Y+008647G85X+419269Y+008652
X+416729Y+008647G85X+416729Y+008652
X+419269Y+011187G85X+419269Y+011192
X+416729Y+011187G85X+416729Y+011192
X+419269Y+013727G85X+419269Y+013732
X+416729Y+013727G85X+416729Y+013732
X+419269Y+016267G85X+419269Y+016272
X+416729Y+016267G85X+416729Y+016272
X+419269Y+018807G85X+419269Y+018812
X+416729Y+018807G85X+416729Y+018812
X+419269Y+021347G85X+419269Y+021352
X+416729Y+021347G85X+416729Y+021352
X+419269Y+023887G85X+419269Y+023892
X+416729Y+023887G85X+416729Y+023892
X+324269Y+006107G85X+324269Y+006112
X+321729Y+006107G85X+321729Y+006112
X+324269Y+008647G85X+324269Y+008652
X+321729Y+008647G85X+321729Y+008652
X+324269Y+011187G85X+324269Y+011192
X+321729Y+011187G85X+321729Y+011192
X+324269Y+013727G85X+324269Y+013732
X+321729Y+013727G85X+321729Y+013732
X+324269Y+016267G85X+324269Y+016272
X+321729Y+016267G85X+321729Y+016272
X+324269Y+018807G85X+324269Y+018812
X+321729Y+018807G85X+321729Y+018812
X+324269Y+021347G85X+324269Y+021352
X+321729Y+021347G85X+321729Y+021352
X+324269Y+023887G85X+324269Y+023892
X+321729Y+023887G85X+321729Y+023892
X+404269Y+006107G85X+404269Y+006112
X+401729Y+006107G85X+401729Y+006112
X+404269Y+008647G85X+404269Y+008652
X+401729Y+008647G85X+401729Y+008652
X+404269Y+011187G85X+404269Y+011192
X+401729Y+011187G85X+401729Y+011192
X+404269Y+013727G85X+404269Y+013732
X+401729Y+013727G85X+401729Y+013732
X+404269Y+016267G85X+404269Y+016272
X+401729Y+016267G85X+401729Y+016272
X+404269Y+018807G85X+404269Y+018812
X+401729Y+018807G85X+401729Y+018812
X+404269Y+021347G85X+404269Y+021352
X+401729Y+021347G85X+401729Y+021352
X+404269Y+023887G85X+404269Y+023892
X+401729Y+023887G85X+401729Y+023892
X+339269Y+006107G85X+339269Y+006112
X+336729Y+006107G85X+336729Y+006112
X+339269Y+008647G85X+339269Y+008652
X+336729Y+008647G85X+336729Y+008652
X+339269Y+011187G85X+339269Y+011192
X+336729Y+011187G85X+336729Y+011192
X+339269Y+013727G85X+339269Y+013732
X+336729Y+013727G85X+336729Y+013732
X+339269Y+016267G85X+339269Y+016272
X+336729Y+016267G85X+336729Y+016272
X+339269Y+018807G85X+339269Y+018812
X+336729Y+018807G85X+336729Y+018812
X+339269Y+021347G85X+339269Y+021352
X+336729Y+021347G85X+336729Y+021352
X+339269Y+023887G85X+339269Y+023892
X+336729Y+023887G85X+336729Y+023892
X+389269Y+006107G85X+389269Y+006112
X+386729Y+006107G85X+386729Y+006112
X+389269Y+008647G85X+389269Y+008652
X+386729Y+008647G85X+386729Y+008652
X+389269Y+011187G85X+389269Y+011192
X+386729Y+011187G85X+386729Y+011192
X+389269Y+013727G85X+389269Y+013732
X+386729Y+013727G85X+386729Y+013732
X+389269Y+016267G85X+389269Y+016272
X+386729Y+016267G85X+386729Y+016272
X+389269Y+018807G85X+389269Y+018812
X+386729Y+018807G85X+386729Y+018812
X+389269Y+021347G85X+389269Y+021352
X+386729Y+021347G85X+386729Y+021352
X+389269Y+023887G85X+389269Y+023892
X+386729Y+023887G85X+386729Y+023892
X+354269Y+006107G85X+354269Y+006112
X+351729Y+006107G85X+351729Y+006112
X+354269Y+008647G85X+354269Y+008652
X+351729Y+008647G85X+351729Y+008652
X+354269Y+011187G85X+354269Y+011192
X+351729Y+011187G85X+351729Y+011192
X+354269Y+013727G85X+354269Y+013732
X+351729Y+013727G85X+351729Y+013732
X+354269Y+016267G85X+354269Y+016272
X+351729Y+016267G85X+351729Y+016272
X+354269Y+018807G85X+354269Y+018812
X+351729Y+018807G85X+351729Y+018812
X+354269Y+021347G85X+354269Y+021352
X+351729Y+021347G85X+351729Y+021352
X+354269Y+023887G85X+354269Y+023892
X+351729Y+023887G85X+351729Y+023892
X+369269Y+006107G85X+369269Y+006112
X+366729Y+006107G85X+366729Y+006112
X+369269Y+008647G85X+369269Y+008652
X+366729Y+008647G85X+366729Y+008652
X+369269Y+011187G85X+369269Y+011192
X+366729Y+011187G85X+366729Y+011192
X+369269Y+013727G85X+369269Y+013732
X+366729Y+013727G85X+366729Y+013732
X+369269Y+016267G85X+369269Y+016272
X+366729Y+016267G85X+366729Y+016272
X+369269Y+018807G85X+369269Y+018812
X+366729Y+018807G85X+366729Y+018812
X+369269Y+021347G85X+369269Y+021352
X+366729Y+021347G85X+366729Y+021352
X+369269Y+023887G85X+369269Y+023892
X+366729Y+023887G85X+366729Y+023892
X+434269Y+006107G85X+434269Y+006112
X+431729Y+006107G85X+431729Y+006112
X+434269Y+008647G85X+434269Y+008652
X+431729Y+008647G85X+431729Y+008652
X+434269Y+011187G85X+434269Y+011192
X+431729Y+011187G85X+431729Y+011192
X+434269Y+013727G85X+434269Y+013732
X+431729Y+013727G85X+431729Y+013732
X+434269Y+016267G85X+434269Y+016272
X+431729Y+016267G85X+431729Y+016272
X+434269Y+018807G85X+434269Y+018812
X+431729Y+018807G85X+431729Y+018812
X+434269Y+021347G85X+434269Y+021352
X+431729Y+021347G85X+431729Y+021352
X+434269Y+023887G85X+434269Y+023892
X+431729Y+023887G85X+431729Y+023892
X+449269Y+006107G85X+449269Y+006112
X+446729Y+006107G85X+446729Y+006112
X+449269Y+008647G85X+449269Y+008652
X+446729Y+008647G85X+446729Y+008652
X+449269Y+011187G85X+449269Y+011192
X+446729Y+011187G85X+446729Y+011192
X+449269Y+013727G85X+449269Y+013732
X+446729Y+013727G85X+446729Y+013732
X+449269Y+016267G85X+449269Y+016272
X+446729Y+016267G85X+446729Y+016272
X+449269Y+018807G85X+449269Y+018812
X+446729Y+018807G85X+446729Y+018812
X+449269Y+021347G85X+449269Y+021352
X+446729Y+021347G85X+446729Y+021352
X+449269Y+023887G85X+449269Y+023892
X+446729Y+023887G85X+446729Y+023892
X+248497Y+004999G85X+248502Y+004999
X+253497Y+004999G85X+253502Y+004999
X+258496Y+004999G85X+258501Y+004999
X+263496Y+004999G85X+263501Y+004999
X+263501Y+024999G85X+263496Y+024999
X+258501Y+024999G85X+258496Y+024999
X+253502Y+024999G85X+253497Y+024999
X+248502Y+024999G85X+248497Y+024999
X+075269Y+006107G85X+075269Y+006112
X+072729Y+006107G85X+072729Y+006112
X+075269Y+008647G85X+075269Y+008652
X+072729Y+008647G85X+072729Y+008652
X+075269Y+011187G85X+075269Y+011192
X+072729Y+011187G85X+072729Y+011192
X+075269Y+013727G85X+075269Y+013732
X+072729Y+013727G85X+072729Y+013732
X+075269Y+016267G85X+075269Y+016272
X+072729Y+016267G85X+072729Y+016272
X+075269Y+018807G85X+075269Y+018812
X+072729Y+018807G85X+072729Y+018812
X+075269Y+021347G85X+075269Y+021352
X+072729Y+021347G85X+072729Y+021352
X+075269Y+023887G85X+075269Y+023892
X+072729Y+023887G85X+072729Y+023892
X+060269Y+006107G85X+060269Y+006112
X+057729Y+006107G85X+057729Y+006112
X+060269Y+008647G85X+060269Y+008652
X+057729Y+008647G85X+057729Y+008652
X+060269Y+011187G85X+060269Y+011192
X+057729Y+011187G85X+057729Y+011192
X+060269Y+013727G85X+060269Y+013732
X+057729Y+013727G85X+057729Y+013732
X+060269Y+016267G85X+060269Y+016272
X+057729Y+016267G85X+057729Y+016272
X+060269Y+018807G85X+060269Y+018812
X+057729Y+018807G85X+057729Y+018812
X+060269Y+021347G85X+060269Y+021352
X+057729Y+021347G85X+057729Y+021352
X+060269Y+023887G85X+060269Y+023892
X+057729Y+023887G85X+057729Y+023892
X+045269Y+006107G85X+045269Y+006112
X+042729Y+006107G85X+042729Y+006112
X+045269Y+008647G85X+045269Y+008652
X+042729Y+008647G85X+042729Y+008652
X+045269Y+011187G85X+045269Y+011192
X+042729Y+011187G85X+042729Y+011192
X+045269Y+013727G85X+045269Y+013732
X+042729Y+013727G85X+042729Y+013732
X+045269Y+016267G85X+045269Y+016272
X+042729Y+016267G85X+042729Y+016272
X+045269Y+018807G85X+045269Y+018812
X+042729Y+018807G85X+042729Y+018812
X+045269Y+021347G85X+045269Y+021352
X+042729Y+021347G85X+042729Y+021352
X+045269Y+023887G85X+045269Y+023892
X+042729Y+023887G85X+042729Y+023892
X+030269Y+006107G85X+030269Y+006112
X+027729Y+006107G85X+027729Y+006112
X+030269Y+008647G85X+030269Y+008652
X+027729Y+008647G85X+027729Y+008652
X+030269Y+011187G85X+030269Y+011192
X+027729Y+011187G85X+027729Y+011192
X+030269Y+013727G85X+030269Y+013732
X+027729Y+013727G85X+027729Y+013732
X+030269Y+016267G85X+030269Y+016272
X+027729Y+016267G85X+027729Y+016272
X+030269Y+018807G85X+030269Y+018812
X+027729Y+018807G85X+027729Y+018812
X+030269Y+021347G85X+030269Y+021352
X+027729Y+021347G85X+027729Y+021352
X+030269Y+023887G85X+030269Y+023892
X+027729Y+023887G85X+027729Y+023892
X+015269Y+006107G85X+015269Y+006112
X+012729Y+006107G85X+012729Y+006112
X+015269Y+008647G85X+015269Y+008652
X+012729Y+008647G85X+012729Y+008652
X+015269Y+011187G85X+015269Y+011192
X+012729Y+011187G85X+012729Y+011192
X+015269Y+013727G85X+015269Y+013732
X+012729Y+013727G85X+012729Y+013732
X+015269Y+016267G85X+015269Y+016272
X+012729Y+016267G85X+012729Y+016272
X+015269Y+018807G85X+015269Y+018812
X+012729Y+018807G85X+012729Y+018812
X+015269Y+021347G85X+015269Y+021352
X+012729Y+021347G85X+012729Y+021352
X+015269Y+023887G85X+015269Y+023892
X+012729Y+023887G85X+012729Y+023892
T04
X+004999Y+024999
X+455999Y+004999
M30
