G04 Layer: BottomLayer*
G04 EasyEDA v6.4.5, 2020-08-30T14:37:43--7:00*
G04 dc7f05a9bb8944a7a08d3473b19a6fd7,99402a404acd4bfc96e7e4cce154ab38,10*
G04 Gerber Generator version 0.2*
G04 Scale: 100 percent, Rotated: No, Reflected: No *
G04 Dimensions in millimeters *
G04 leading zeros omitted , absolute positions ,3 integer and 3 decimal *
%FSLAX33Y33*%
%MOMM*%
G90*
G71D02*

%ADD11C,1.869948*%
%ADD13C,0.999998*%
%ADD14C,0.914400*%
%ADD15C,4.999990*%
%ADD16C,0.609600*%
%ADD19R,1.879600X1.879600*%
%ADD20C,1.879600*%
%ADD21R,1.778000X1.778000*%
%ADD22C,1.778000*%

%LPD*%
G36*
G01X270897Y29870D02*
G01X238601Y29870D01*
G01X238586Y29869D01*
G01X238572Y29866D01*
G01X238559Y29861D01*
G01X238546Y29854D01*
G01X238534Y29845D01*
G01X238524Y29835D01*
G01X238515Y29823D01*
G01X238508Y29811D01*
G01X238503Y29797D01*
G01X238500Y29783D01*
G01X238499Y29768D01*
G01X238499Y25089D01*
G01X238500Y25074D01*
G01X238504Y25059D01*
G01X238509Y25045D01*
G01X238517Y25032D01*
G01X238526Y25020D01*
G01X238537Y25010D01*
G01X238549Y25001D01*
G01X238612Y24974D01*
G01X238660Y24950D01*
G01X238706Y24925D01*
G01X238752Y24898D01*
G01X238797Y24868D01*
G01X238840Y24837D01*
G01X238881Y24804D01*
G01X238921Y24769D01*
G01X238960Y24732D01*
G01X241471Y22221D01*
G01X241483Y22210D01*
G01X241496Y22202D01*
G01X241511Y22196D01*
G01X241527Y22192D01*
G01X241543Y22191D01*
G01X270897Y22191D01*
G01X270912Y22192D01*
G01X270926Y22195D01*
G01X270940Y22200D01*
G01X270952Y22207D01*
G01X270964Y22216D01*
G01X270974Y22226D01*
G01X270983Y22238D01*
G01X270990Y22250D01*
G01X270995Y22264D01*
G01X270998Y22278D01*
G01X270999Y22293D01*
G01X270999Y29768D01*
G01X270998Y29783D01*
G01X270995Y29797D01*
G01X270990Y29811D01*
G01X270983Y29823D01*
G01X270974Y29835D01*
G01X270964Y29845D01*
G01X270952Y29854D01*
G01X270940Y29861D01*
G01X270926Y29866D01*
G01X270912Y29869D01*
G01X270897Y29870D01*
G37*

%LPC*%
G36*
G01X242061Y26855D02*
G01X241999Y26856D01*
G01X241937Y26855D01*
G01X241875Y26852D01*
G01X241813Y26847D01*
G01X241752Y26839D01*
G01X241690Y26830D01*
G01X241629Y26819D01*
G01X241569Y26805D01*
G01X241509Y26790D01*
G01X241449Y26773D01*
G01X241390Y26753D01*
G01X241332Y26732D01*
G01X241274Y26709D01*
G01X241218Y26683D01*
G01X241162Y26656D01*
G01X241107Y26627D01*
G01X241053Y26597D01*
G01X241000Y26564D01*
G01X240948Y26530D01*
G01X240898Y26494D01*
G01X240848Y26456D01*
G01X240800Y26417D01*
G01X240754Y26376D01*
G01X240708Y26334D01*
G01X240665Y26290D01*
G01X240622Y26245D01*
G01X240581Y26198D01*
G01X240542Y26150D01*
G01X240504Y26101D01*
G01X240468Y26050D01*
G01X240434Y25998D01*
G01X240402Y25946D01*
G01X240371Y25892D01*
G01X240342Y25837D01*
G01X240315Y25781D01*
G01X240290Y25724D01*
G01X240267Y25667D01*
G01X240245Y25608D01*
G01X240226Y25549D01*
G01X240208Y25490D01*
G01X240193Y25430D01*
G01X240180Y25369D01*
G01X240168Y25308D01*
G01X240159Y25247D01*
G01X240152Y25185D01*
G01X240147Y25123D01*
G01X240144Y25061D01*
G01X240143Y24999D01*
G01X240144Y24937D01*
G01X240147Y24875D01*
G01X240152Y24814D01*
G01X240159Y24752D01*
G01X240168Y24691D01*
G01X240180Y24630D01*
G01X240193Y24569D01*
G01X240208Y24509D01*
G01X240226Y24449D01*
G01X240245Y24390D01*
G01X240267Y24332D01*
G01X240290Y24275D01*
G01X240315Y24218D01*
G01X240342Y24162D01*
G01X240371Y24107D01*
G01X240402Y24053D01*
G01X240434Y24001D01*
G01X240468Y23949D01*
G01X240504Y23898D01*
G01X240542Y23849D01*
G01X240581Y23801D01*
G01X240622Y23754D01*
G01X240665Y23709D01*
G01X240708Y23665D01*
G01X240754Y23623D01*
G01X240800Y23582D01*
G01X240848Y23542D01*
G01X240898Y23505D01*
G01X240948Y23469D01*
G01X241000Y23435D01*
G01X241053Y23402D01*
G01X241107Y23371D01*
G01X241162Y23343D01*
G01X241218Y23315D01*
G01X241274Y23290D01*
G01X241332Y23267D01*
G01X241390Y23246D01*
G01X241449Y23226D01*
G01X241509Y23209D01*
G01X241569Y23194D01*
G01X241629Y23180D01*
G01X241690Y23169D01*
G01X241752Y23160D01*
G01X241813Y23152D01*
G01X241875Y23147D01*
G01X241937Y23144D01*
G01X241999Y23143D01*
G01X242061Y23144D01*
G01X242123Y23147D01*
G01X242185Y23152D01*
G01X242246Y23160D01*
G01X242308Y23169D01*
G01X242369Y23180D01*
G01X242429Y23194D01*
G01X242489Y23209D01*
G01X242549Y23226D01*
G01X242608Y23246D01*
G01X242666Y23267D01*
G01X242724Y23290D01*
G01X242780Y23315D01*
G01X242836Y23343D01*
G01X242891Y23371D01*
G01X242945Y23402D01*
G01X242998Y23435D01*
G01X243050Y23469D01*
G01X243100Y23505D01*
G01X243150Y23542D01*
G01X243198Y23582D01*
G01X243244Y23623D01*
G01X243290Y23665D01*
G01X243334Y23709D01*
G01X243376Y23754D01*
G01X243417Y23801D01*
G01X243456Y23849D01*
G01X243494Y23898D01*
G01X243530Y23949D01*
G01X243564Y24001D01*
G01X243596Y24053D01*
G01X243627Y24107D01*
G01X243656Y24162D01*
G01X243683Y24218D01*
G01X243708Y24275D01*
G01X243731Y24332D01*
G01X243753Y24390D01*
G01X243772Y24449D01*
G01X243790Y24509D01*
G01X243805Y24569D01*
G01X243818Y24630D01*
G01X243830Y24691D01*
G01X243839Y24752D01*
G01X243846Y24814D01*
G01X243851Y24875D01*
G01X243854Y24937D01*
G01X243856Y24999D01*
G01X243854Y25061D01*
G01X243851Y25123D01*
G01X243846Y25185D01*
G01X243839Y25247D01*
G01X243830Y25308D01*
G01X243818Y25369D01*
G01X243805Y25430D01*
G01X243790Y25490D01*
G01X243772Y25549D01*
G01X243753Y25608D01*
G01X243731Y25667D01*
G01X243708Y25724D01*
G01X243683Y25781D01*
G01X243656Y25837D01*
G01X243627Y25892D01*
G01X243596Y25946D01*
G01X243564Y25998D01*
G01X243530Y26050D01*
G01X243494Y26101D01*
G01X243456Y26150D01*
G01X243417Y26198D01*
G01X243376Y26245D01*
G01X243334Y26290D01*
G01X243290Y26334D01*
G01X243244Y26376D01*
G01X243198Y26417D01*
G01X243150Y26456D01*
G01X243100Y26494D01*
G01X243050Y26530D01*
G01X242998Y26564D01*
G01X242945Y26597D01*
G01X242891Y26627D01*
G01X242836Y26656D01*
G01X242780Y26683D01*
G01X242724Y26709D01*
G01X242666Y26732D01*
G01X242608Y26753D01*
G01X242549Y26773D01*
G01X242489Y26790D01*
G01X242429Y26805D01*
G01X242369Y26819D01*
G01X242308Y26830D01*
G01X242246Y26839D01*
G01X242185Y26847D01*
G01X242123Y26852D01*
G01X242061Y26855D01*
G37*
G36*
G01X264388Y26145D02*
G01X262610Y26145D01*
G01X262586Y26144D01*
G01X262563Y26141D01*
G01X262540Y26135D01*
G01X262517Y26128D01*
G01X262495Y26118D01*
G01X262475Y26107D01*
G01X262455Y26093D01*
G01X262437Y26078D01*
G01X262420Y26061D01*
G01X262405Y26043D01*
G01X262392Y26024D01*
G01X262380Y26003D01*
G01X262371Y25981D01*
G01X262363Y25959D01*
G01X262358Y25936D01*
G01X262354Y25912D01*
G01X262353Y25888D01*
G01X262353Y24110D01*
G01X262354Y24087D01*
G01X262358Y24063D01*
G01X262363Y24040D01*
G01X262371Y24018D01*
G01X262380Y23996D01*
G01X262392Y23975D01*
G01X262405Y23956D01*
G01X262420Y23938D01*
G01X262437Y23921D01*
G01X262455Y23906D01*
G01X262475Y23892D01*
G01X262495Y23881D01*
G01X262517Y23871D01*
G01X262540Y23864D01*
G01X262563Y23858D01*
G01X262586Y23855D01*
G01X262610Y23854D01*
G01X264388Y23854D01*
G01X264412Y23855D01*
G01X264435Y23858D01*
G01X264458Y23864D01*
G01X264481Y23871D01*
G01X264502Y23881D01*
G01X264523Y23892D01*
G01X264542Y23906D01*
G01X264561Y23921D01*
G01X264577Y23938D01*
G01X264593Y23956D01*
G01X264606Y23975D01*
G01X264617Y23996D01*
G01X264627Y24018D01*
G01X264635Y24040D01*
G01X264640Y24063D01*
G01X264643Y24087D01*
G01X264644Y24110D01*
G01X264644Y25888D01*
G01X264643Y25912D01*
G01X264640Y25936D01*
G01X264635Y25959D01*
G01X264627Y25981D01*
G01X264617Y26003D01*
G01X264606Y26024D01*
G01X264593Y26043D01*
G01X264577Y26061D01*
G01X264561Y26078D01*
G01X264542Y26093D01*
G01X264523Y26107D01*
G01X264502Y26118D01*
G01X264481Y26128D01*
G01X264458Y26135D01*
G01X264435Y26141D01*
G01X264412Y26144D01*
G01X264388Y26145D01*
G37*
G36*
G01X248548Y26144D02*
G01X248499Y26145D01*
G01X248451Y26144D01*
G01X248402Y26141D01*
G01X248354Y26136D01*
G01X248306Y26129D01*
G01X248258Y26119D01*
G01X248210Y26108D01*
G01X248164Y26095D01*
G01X248117Y26080D01*
G01X248072Y26062D01*
G01X248027Y26043D01*
G01X247983Y26022D01*
G01X247940Y26000D01*
G01X247899Y25975D01*
G01X247858Y25949D01*
G01X247818Y25920D01*
G01X247779Y25891D01*
G01X247742Y25859D01*
G01X247706Y25826D01*
G01X247672Y25792D01*
G01X247639Y25756D01*
G01X247608Y25719D01*
G01X247578Y25681D01*
G01X247550Y25641D01*
G01X247524Y25600D01*
G01X247499Y25558D01*
G01X247476Y25515D01*
G01X247455Y25471D01*
G01X247436Y25427D01*
G01X247419Y25381D01*
G01X247404Y25335D01*
G01X247391Y25288D01*
G01X247379Y25241D01*
G01X247370Y25193D01*
G01X247363Y25145D01*
G01X247358Y25097D01*
G01X247355Y25048D01*
G01X247354Y24999D01*
G01X247355Y24951D01*
G01X247358Y24902D01*
G01X247363Y24854D01*
G01X247370Y24806D01*
G01X247379Y24758D01*
G01X247391Y24711D01*
G01X247404Y24664D01*
G01X247419Y24618D01*
G01X247436Y24572D01*
G01X247455Y24528D01*
G01X247476Y24484D01*
G01X247499Y24441D01*
G01X247524Y24399D01*
G01X247550Y24358D01*
G01X247578Y24318D01*
G01X247608Y24280D01*
G01X247639Y24243D01*
G01X247672Y24207D01*
G01X247706Y24172D01*
G01X247742Y24140D01*
G01X247779Y24108D01*
G01X247818Y24078D01*
G01X247858Y24050D01*
G01X247899Y24024D01*
G01X247940Y23999D01*
G01X247983Y23977D01*
G01X248027Y23956D01*
G01X248072Y23937D01*
G01X248117Y23919D01*
G01X248164Y23904D01*
G01X248210Y23891D01*
G01X248258Y23880D01*
G01X248306Y23870D01*
G01X248354Y23863D01*
G01X248402Y23858D01*
G01X248451Y23855D01*
G01X248499Y23854D01*
G01X248548Y23855D01*
G01X248596Y23858D01*
G01X248645Y23863D01*
G01X248693Y23870D01*
G01X248740Y23880D01*
G01X248788Y23891D01*
G01X248835Y23904D01*
G01X248881Y23919D01*
G01X248926Y23937D01*
G01X248971Y23956D01*
G01X249015Y23977D01*
G01X249058Y23999D01*
G01X249100Y24024D01*
G01X249141Y24050D01*
G01X249180Y24078D01*
G01X249219Y24108D01*
G01X249256Y24140D01*
G01X249292Y24172D01*
G01X249326Y24207D01*
G01X249359Y24243D01*
G01X249390Y24280D01*
G01X249420Y24318D01*
G01X249448Y24358D01*
G01X249475Y24399D01*
G01X249499Y24441D01*
G01X249522Y24484D01*
G01X249543Y24528D01*
G01X249562Y24572D01*
G01X249579Y24618D01*
G01X249594Y24664D01*
G01X249608Y24711D01*
G01X249619Y24758D01*
G01X249628Y24806D01*
G01X249635Y24854D01*
G01X249641Y24902D01*
G01X249644Y24951D01*
G01X249645Y24999D01*
G01X249644Y25048D01*
G01X249641Y25097D01*
G01X249635Y25145D01*
G01X249628Y25193D01*
G01X249619Y25241D01*
G01X249608Y25288D01*
G01X249594Y25335D01*
G01X249579Y25381D01*
G01X249562Y25427D01*
G01X249543Y25471D01*
G01X249522Y25515D01*
G01X249499Y25558D01*
G01X249475Y25600D01*
G01X249448Y25641D01*
G01X249420Y25681D01*
G01X249390Y25719D01*
G01X249359Y25756D01*
G01X249326Y25792D01*
G01X249292Y25826D01*
G01X249256Y25859D01*
G01X249219Y25891D01*
G01X249141Y25949D01*
G01X249100Y25975D01*
G01X249058Y26000D01*
G01X249015Y26022D01*
G01X248971Y26043D01*
G01X248926Y26062D01*
G01X248881Y26080D01*
G01X248835Y26095D01*
G01X248788Y26108D01*
G01X248740Y26119D01*
G01X248693Y26129D01*
G01X248645Y26136D01*
G01X248596Y26141D01*
G01X248548Y26144D01*
G37*
G36*
G01X258547Y26144D02*
G01X258499Y26145D01*
G01X258450Y26144D01*
G01X258402Y26141D01*
G01X258353Y26136D01*
G01X258305Y26129D01*
G01X258258Y26119D01*
G01X258210Y26108D01*
G01X258163Y26095D01*
G01X258117Y26080D01*
G01X258072Y26062D01*
G01X258027Y26043D01*
G01X257983Y26022D01*
G01X257940Y26000D01*
G01X257898Y25975D01*
G01X257857Y25949D01*
G01X257779Y25891D01*
G01X257742Y25859D01*
G01X257706Y25826D01*
G01X257672Y25792D01*
G01X257639Y25756D01*
G01X257608Y25719D01*
G01X257578Y25681D01*
G01X257550Y25641D01*
G01X257523Y25600D01*
G01X257499Y25558D01*
G01X257476Y25515D01*
G01X257455Y25471D01*
G01X257436Y25427D01*
G01X257419Y25381D01*
G01X257404Y25335D01*
G01X257390Y25288D01*
G01X257379Y25241D01*
G01X257370Y25193D01*
G01X257363Y25145D01*
G01X257357Y25097D01*
G01X257354Y25048D01*
G01X257353Y24999D01*
G01X257354Y24951D01*
G01X257357Y24902D01*
G01X257363Y24854D01*
G01X257370Y24806D01*
G01X257379Y24758D01*
G01X257390Y24711D01*
G01X257404Y24664D01*
G01X257419Y24618D01*
G01X257436Y24572D01*
G01X257455Y24528D01*
G01X257476Y24484D01*
G01X257499Y24441D01*
G01X257523Y24399D01*
G01X257550Y24358D01*
G01X257578Y24318D01*
G01X257608Y24280D01*
G01X257639Y24243D01*
G01X257672Y24207D01*
G01X257706Y24172D01*
G01X257742Y24140D01*
G01X257779Y24108D01*
G01X257818Y24078D01*
G01X257857Y24050D01*
G01X257898Y24024D01*
G01X257940Y23999D01*
G01X257983Y23977D01*
G01X258027Y23956D01*
G01X258072Y23937D01*
G01X258117Y23919D01*
G01X258163Y23904D01*
G01X258210Y23891D01*
G01X258258Y23880D01*
G01X258305Y23870D01*
G01X258353Y23863D01*
G01X258402Y23858D01*
G01X258450Y23855D01*
G01X258499Y23854D01*
G01X258547Y23855D01*
G01X258596Y23858D01*
G01X258644Y23863D01*
G01X258692Y23870D01*
G01X258740Y23880D01*
G01X258788Y23891D01*
G01X258834Y23904D01*
G01X258880Y23919D01*
G01X258926Y23937D01*
G01X258971Y23956D01*
G01X259015Y23977D01*
G01X259058Y23999D01*
G01X259099Y24024D01*
G01X259140Y24050D01*
G01X259180Y24078D01*
G01X259219Y24108D01*
G01X259256Y24140D01*
G01X259291Y24172D01*
G01X259326Y24207D01*
G01X259359Y24243D01*
G01X259390Y24280D01*
G01X259420Y24318D01*
G01X259448Y24358D01*
G01X259474Y24399D01*
G01X259499Y24441D01*
G01X259522Y24484D01*
G01X259543Y24528D01*
G01X259562Y24572D01*
G01X259579Y24618D01*
G01X259594Y24664D01*
G01X259607Y24711D01*
G01X259619Y24758D01*
G01X259628Y24806D01*
G01X259635Y24854D01*
G01X259640Y24902D01*
G01X259643Y24951D01*
G01X259644Y24999D01*
G01X259643Y25048D01*
G01X259640Y25097D01*
G01X259635Y25145D01*
G01X259628Y25193D01*
G01X259619Y25241D01*
G01X259607Y25288D01*
G01X259594Y25335D01*
G01X259579Y25381D01*
G01X259562Y25427D01*
G01X259543Y25471D01*
G01X259522Y25515D01*
G01X259499Y25558D01*
G01X259474Y25600D01*
G01X259448Y25641D01*
G01X259420Y25681D01*
G01X259390Y25719D01*
G01X259359Y25756D01*
G01X259326Y25792D01*
G01X259291Y25826D01*
G01X259256Y25859D01*
G01X259219Y25891D01*
G01X259180Y25920D01*
G01X259140Y25949D01*
G01X259099Y25975D01*
G01X259058Y26000D01*
G01X259015Y26022D01*
G01X258971Y26043D01*
G01X258926Y26062D01*
G01X258880Y26080D01*
G01X258834Y26095D01*
G01X258788Y26108D01*
G01X258740Y26119D01*
G01X258692Y26129D01*
G01X258644Y26136D01*
G01X258596Y26141D01*
G01X258547Y26144D01*
G37*

%LPD*%
G36*
G01X238612Y12315D02*
G01X238601Y12316D01*
G01X238586Y12315D01*
G01X238572Y12312D01*
G01X238559Y12307D01*
G01X238546Y12300D01*
G01X238534Y12291D01*
G01X238524Y12281D01*
G01X238515Y12269D01*
G01X238508Y12256D01*
G01X238503Y12243D01*
G01X238500Y12229D01*
G01X238499Y12214D01*
G01X238499Y8930D01*
G01X238500Y8915D01*
G01X238503Y8901D01*
G01X238508Y8888D01*
G01X238515Y8875D01*
G01X238524Y8863D01*
G01X238534Y8853D01*
G01X238546Y8844D01*
G01X238559Y8837D01*
G01X238572Y8832D01*
G01X238586Y8829D01*
G01X238601Y8828D01*
G01X238617Y8829D01*
G01X238632Y8833D01*
G01X238647Y8839D01*
G01X238660Y8848D01*
G01X238673Y8858D01*
G01X239657Y9842D01*
G01X239692Y9876D01*
G01X239729Y9909D01*
G01X239767Y9940D01*
G01X239807Y9969D01*
G01X239847Y9997D01*
G01X239889Y10023D01*
G01X239932Y10047D01*
G01X239976Y10070D01*
G01X240021Y10091D01*
G01X240066Y10109D01*
G01X240112Y10126D01*
G01X240159Y10141D01*
G01X240207Y10155D01*
G01X240255Y10166D01*
G01X240303Y10175D01*
G01X240352Y10182D01*
G01X240401Y10187D01*
G01X240450Y10190D01*
G01X240499Y10191D01*
G01X270897Y10191D01*
G01X270912Y10192D01*
G01X270926Y10195D01*
G01X270940Y10200D01*
G01X270952Y10207D01*
G01X270964Y10216D01*
G01X270974Y10226D01*
G01X270983Y10238D01*
G01X270990Y10250D01*
G01X270995Y10264D01*
G01X270998Y10278D01*
G01X270999Y10293D01*
G01X270999Y12206D01*
G01X270998Y12221D01*
G01X270995Y12235D01*
G01X270990Y12248D01*
G01X270983Y12261D01*
G01X270974Y12273D01*
G01X270964Y12283D01*
G01X270952Y12292D01*
G01X270940Y12299D01*
G01X270926Y12304D01*
G01X270912Y12307D01*
G01X270897Y12308D01*
G01X238745Y12308D01*
G01X238678Y12310D01*
G01X238612Y12315D01*
G37*

%LPD*%
G36*
G01X270897Y7808D02*
G01X241035Y7808D01*
G01X241019Y7807D01*
G01X241003Y7803D01*
G01X240989Y7797D01*
G01X240975Y7789D01*
G01X240963Y7778D01*
G01X238529Y5344D01*
G01X238519Y5332D01*
G01X238510Y5318D01*
G01X238504Y5304D01*
G01X238500Y5288D01*
G01X238499Y5272D01*
G01X238499Y231D01*
G01X238500Y216D01*
G01X238503Y202D01*
G01X238508Y188D01*
G01X238515Y176D01*
G01X238524Y164D01*
G01X238534Y154D01*
G01X238546Y145D01*
G01X238559Y138D01*
G01X238572Y133D01*
G01X238586Y130D01*
G01X238601Y129D01*
G01X270897Y129D01*
G01X270912Y130D01*
G01X270926Y133D01*
G01X270940Y138D01*
G01X270952Y145D01*
G01X270964Y154D01*
G01X270974Y164D01*
G01X270983Y176D01*
G01X270990Y188D01*
G01X270995Y202D01*
G01X270998Y216D01*
G01X270999Y231D01*
G01X270999Y7706D01*
G01X270998Y7721D01*
G01X270995Y7735D01*
G01X270990Y7749D01*
G01X270983Y7761D01*
G01X270974Y7773D01*
G01X270964Y7783D01*
G01X270952Y7792D01*
G01X270940Y7799D01*
G01X270926Y7804D01*
G01X270912Y7807D01*
G01X270897Y7808D01*
G37*

%LPC*%
G36*
G01X242061Y6855D02*
G01X241999Y6856D01*
G01X241937Y6855D01*
G01X241875Y6852D01*
G01X241813Y6847D01*
G01X241752Y6839D01*
G01X241690Y6830D01*
G01X241629Y6819D01*
G01X241569Y6805D01*
G01X241509Y6790D01*
G01X241449Y6773D01*
G01X241390Y6753D01*
G01X241332Y6732D01*
G01X241274Y6709D01*
G01X241218Y6683D01*
G01X241162Y6656D01*
G01X241107Y6628D01*
G01X241053Y6597D01*
G01X241000Y6564D01*
G01X240948Y6530D01*
G01X240898Y6494D01*
G01X240848Y6456D01*
G01X240800Y6417D01*
G01X240754Y6376D01*
G01X240708Y6334D01*
G01X240665Y6290D01*
G01X240622Y6245D01*
G01X240581Y6198D01*
G01X240542Y6150D01*
G01X240504Y6101D01*
G01X240468Y6050D01*
G01X240434Y5998D01*
G01X240402Y5946D01*
G01X240371Y5892D01*
G01X240342Y5837D01*
G01X240315Y5781D01*
G01X240290Y5724D01*
G01X240267Y5667D01*
G01X240245Y5608D01*
G01X240226Y5550D01*
G01X240208Y5490D01*
G01X240193Y5430D01*
G01X240180Y5369D01*
G01X240168Y5308D01*
G01X240159Y5247D01*
G01X240152Y5185D01*
G01X240147Y5123D01*
G01X240144Y5062D01*
G01X240143Y4999D01*
G01X240144Y4937D01*
G01X240147Y4875D01*
G01X240152Y4814D01*
G01X240159Y4752D01*
G01X240168Y4691D01*
G01X240180Y4630D01*
G01X240193Y4569D01*
G01X240208Y4509D01*
G01X240226Y4449D01*
G01X240245Y4391D01*
G01X240267Y4332D01*
G01X240290Y4275D01*
G01X240315Y4218D01*
G01X240342Y4162D01*
G01X240371Y4107D01*
G01X240402Y4053D01*
G01X240434Y4001D01*
G01X240468Y3949D01*
G01X240504Y3898D01*
G01X240542Y3849D01*
G01X240581Y3801D01*
G01X240622Y3754D01*
G01X240665Y3709D01*
G01X240708Y3665D01*
G01X240754Y3623D01*
G01X240800Y3582D01*
G01X240848Y3543D01*
G01X240898Y3505D01*
G01X240948Y3469D01*
G01X241000Y3435D01*
G01X241053Y3402D01*
G01X241107Y3371D01*
G01X241162Y3343D01*
G01X241218Y3315D01*
G01X241274Y3290D01*
G01X241332Y3267D01*
G01X241390Y3246D01*
G01X241449Y3226D01*
G01X241509Y3209D01*
G01X241569Y3194D01*
G01X241629Y3180D01*
G01X241690Y3169D01*
G01X241752Y3160D01*
G01X241813Y3152D01*
G01X241875Y3147D01*
G01X241937Y3144D01*
G01X241999Y3143D01*
G01X242061Y3144D01*
G01X242123Y3147D01*
G01X242185Y3152D01*
G01X242246Y3160D01*
G01X242308Y3169D01*
G01X242369Y3180D01*
G01X242429Y3194D01*
G01X242489Y3209D01*
G01X242549Y3226D01*
G01X242608Y3246D01*
G01X242666Y3267D01*
G01X242724Y3290D01*
G01X242780Y3315D01*
G01X242836Y3343D01*
G01X242891Y3371D01*
G01X242945Y3402D01*
G01X242998Y3435D01*
G01X243050Y3469D01*
G01X243100Y3505D01*
G01X243150Y3543D01*
G01X243198Y3582D01*
G01X243244Y3623D01*
G01X243290Y3665D01*
G01X243334Y3709D01*
G01X243376Y3754D01*
G01X243417Y3801D01*
G01X243456Y3849D01*
G01X243494Y3898D01*
G01X243530Y3949D01*
G01X243564Y4001D01*
G01X243596Y4053D01*
G01X243627Y4107D01*
G01X243656Y4162D01*
G01X243683Y4218D01*
G01X243708Y4275D01*
G01X243731Y4332D01*
G01X243753Y4391D01*
G01X243772Y4449D01*
G01X243790Y4509D01*
G01X243805Y4569D01*
G01X243818Y4630D01*
G01X243830Y4691D01*
G01X243839Y4752D01*
G01X243846Y4814D01*
G01X243851Y4875D01*
G01X243854Y4937D01*
G01X243856Y4999D01*
G01X243854Y5062D01*
G01X243851Y5123D01*
G01X243846Y5185D01*
G01X243839Y5247D01*
G01X243830Y5308D01*
G01X243818Y5369D01*
G01X243805Y5430D01*
G01X243790Y5490D01*
G01X243772Y5550D01*
G01X243753Y5608D01*
G01X243731Y5667D01*
G01X243708Y5724D01*
G01X243683Y5781D01*
G01X243656Y5837D01*
G01X243627Y5892D01*
G01X243596Y5946D01*
G01X243564Y5998D01*
G01X243530Y6050D01*
G01X243494Y6101D01*
G01X243456Y6150D01*
G01X243417Y6198D01*
G01X243376Y6245D01*
G01X243334Y6290D01*
G01X243290Y6334D01*
G01X243244Y6376D01*
G01X243198Y6417D01*
G01X243150Y6456D01*
G01X243100Y6494D01*
G01X243050Y6530D01*
G01X242998Y6564D01*
G01X242945Y6597D01*
G01X242891Y6628D01*
G01X242836Y6656D01*
G01X242780Y6683D01*
G01X242724Y6709D01*
G01X242666Y6732D01*
G01X242608Y6753D01*
G01X242549Y6773D01*
G01X242489Y6790D01*
G01X242429Y6805D01*
G01X242369Y6819D01*
G01X242308Y6830D01*
G01X242246Y6839D01*
G01X242185Y6847D01*
G01X242123Y6852D01*
G01X242061Y6855D01*
G37*
G36*
G01X263547Y6144D02*
G01X263499Y6145D01*
G01X263450Y6144D01*
G01X263402Y6141D01*
G01X263353Y6136D01*
G01X263305Y6129D01*
G01X263257Y6119D01*
G01X263210Y6108D01*
G01X263163Y6095D01*
G01X263117Y6080D01*
G01X263072Y6062D01*
G01X263027Y6043D01*
G01X262983Y6022D01*
G01X262940Y6000D01*
G01X262898Y5975D01*
G01X262857Y5949D01*
G01X262779Y5891D01*
G01X262742Y5859D01*
G01X262706Y5827D01*
G01X262672Y5792D01*
G01X262639Y5756D01*
G01X262608Y5719D01*
G01X262578Y5681D01*
G01X262550Y5641D01*
G01X262523Y5600D01*
G01X262499Y5558D01*
G01X262476Y5515D01*
G01X262455Y5471D01*
G01X262436Y5427D01*
G01X262419Y5381D01*
G01X262404Y5335D01*
G01X262390Y5288D01*
G01X262379Y5241D01*
G01X262370Y5193D01*
G01X262363Y5145D01*
G01X262357Y5097D01*
G01X262354Y5048D01*
G01X262353Y4999D01*
G01X262354Y4951D01*
G01X262357Y4902D01*
G01X262363Y4854D01*
G01X262370Y4806D01*
G01X262379Y4758D01*
G01X262390Y4711D01*
G01X262404Y4664D01*
G01X262419Y4618D01*
G01X262436Y4572D01*
G01X262455Y4528D01*
G01X262476Y4484D01*
G01X262499Y4441D01*
G01X262523Y4399D01*
G01X262550Y4358D01*
G01X262578Y4318D01*
G01X262608Y4280D01*
G01X262639Y4243D01*
G01X262672Y4207D01*
G01X262706Y4172D01*
G01X262742Y4140D01*
G01X262779Y4108D01*
G01X262818Y4078D01*
G01X262857Y4050D01*
G01X262898Y4024D01*
G01X262940Y3999D01*
G01X262983Y3977D01*
G01X263027Y3956D01*
G01X263072Y3937D01*
G01X263117Y3919D01*
G01X263163Y3904D01*
G01X263210Y3891D01*
G01X263257Y3880D01*
G01X263305Y3870D01*
G01X263353Y3863D01*
G01X263402Y3858D01*
G01X263450Y3855D01*
G01X263499Y3854D01*
G01X263547Y3855D01*
G01X263596Y3858D01*
G01X263644Y3863D01*
G01X263692Y3870D01*
G01X263740Y3880D01*
G01X263787Y3891D01*
G01X263834Y3904D01*
G01X263880Y3919D01*
G01X263926Y3937D01*
G01X263971Y3956D01*
G01X264015Y3977D01*
G01X264058Y3999D01*
G01X264099Y4024D01*
G01X264140Y4050D01*
G01X264180Y4078D01*
G01X264219Y4108D01*
G01X264256Y4140D01*
G01X264291Y4172D01*
G01X264326Y4207D01*
G01X264359Y4243D01*
G01X264390Y4280D01*
G01X264420Y4318D01*
G01X264448Y4358D01*
G01X264474Y4399D01*
G01X264499Y4441D01*
G01X264522Y4484D01*
G01X264543Y4528D01*
G01X264562Y4572D01*
G01X264579Y4618D01*
G01X264594Y4664D01*
G01X264607Y4711D01*
G01X264619Y4758D01*
G01X264628Y4806D01*
G01X264635Y4854D01*
G01X264640Y4902D01*
G01X264643Y4951D01*
G01X264644Y4999D01*
G01X264643Y5048D01*
G01X264640Y5097D01*
G01X264635Y5145D01*
G01X264628Y5193D01*
G01X264619Y5241D01*
G01X264607Y5288D01*
G01X264594Y5335D01*
G01X264579Y5381D01*
G01X264562Y5427D01*
G01X264543Y5471D01*
G01X264522Y5515D01*
G01X264499Y5558D01*
G01X264474Y5600D01*
G01X264448Y5641D01*
G01X264420Y5681D01*
G01X264390Y5719D01*
G01X264359Y5756D01*
G01X264326Y5792D01*
G01X264291Y5827D01*
G01X264256Y5859D01*
G01X264219Y5891D01*
G01X264180Y5920D01*
G01X264140Y5949D01*
G01X264099Y5975D01*
G01X264058Y6000D01*
G01X264015Y6022D01*
G01X263971Y6043D01*
G01X263926Y6062D01*
G01X263880Y6080D01*
G01X263834Y6095D01*
G01X263787Y6108D01*
G01X263740Y6119D01*
G01X263692Y6129D01*
G01X263644Y6136D01*
G01X263596Y6141D01*
G01X263547Y6144D01*
G37*
G36*
G01X249388Y6145D02*
G01X247610Y6145D01*
G01X247586Y6144D01*
G01X247563Y6141D01*
G01X247540Y6135D01*
G01X247517Y6128D01*
G01X247496Y6118D01*
G01X247475Y6107D01*
G01X247456Y6093D01*
G01X247437Y6078D01*
G01X247421Y6061D01*
G01X247405Y6043D01*
G01X247392Y6024D01*
G01X247380Y6003D01*
G01X247371Y5981D01*
G01X247363Y5959D01*
G01X247358Y5936D01*
G01X247355Y5912D01*
G01X247354Y5888D01*
G01X247354Y4110D01*
G01X247355Y4087D01*
G01X247358Y4063D01*
G01X247363Y4040D01*
G01X247371Y4018D01*
G01X247380Y3996D01*
G01X247392Y3975D01*
G01X247405Y3956D01*
G01X247421Y3938D01*
G01X247437Y3921D01*
G01X247456Y3906D01*
G01X247475Y3892D01*
G01X247496Y3881D01*
G01X247517Y3871D01*
G01X247540Y3864D01*
G01X247563Y3858D01*
G01X247586Y3855D01*
G01X247610Y3854D01*
G01X249388Y3854D01*
G01X249412Y3855D01*
G01X249435Y3858D01*
G01X249458Y3864D01*
G01X249481Y3871D01*
G01X249502Y3881D01*
G01X249523Y3892D01*
G01X249543Y3906D01*
G01X249561Y3921D01*
G01X249578Y3938D01*
G01X249593Y3956D01*
G01X249606Y3975D01*
G01X249618Y3996D01*
G01X249627Y4018D01*
G01X249635Y4040D01*
G01X249640Y4063D01*
G01X249644Y4087D01*
G01X249645Y4110D01*
G01X249645Y5888D01*
G01X249644Y5912D01*
G01X249640Y5936D01*
G01X249635Y5959D01*
G01X249627Y5981D01*
G01X249618Y6003D01*
G01X249606Y6024D01*
G01X249593Y6043D01*
G01X249578Y6061D01*
G01X249561Y6078D01*
G01X249543Y6093D01*
G01X249523Y6107D01*
G01X249502Y6118D01*
G01X249481Y6128D01*
G01X249458Y6135D01*
G01X249435Y6141D01*
G01X249412Y6144D01*
G01X249388Y6145D01*
G37*
G36*
G01X258547Y6144D02*
G01X258499Y6145D01*
G01X258450Y6144D01*
G01X258402Y6141D01*
G01X258353Y6136D01*
G01X258305Y6129D01*
G01X258258Y6119D01*
G01X258210Y6108D01*
G01X258163Y6095D01*
G01X258117Y6080D01*
G01X258072Y6062D01*
G01X258027Y6043D01*
G01X257983Y6022D01*
G01X257940Y6000D01*
G01X257898Y5975D01*
G01X257857Y5949D01*
G01X257779Y5891D01*
G01X257742Y5859D01*
G01X257706Y5827D01*
G01X257672Y5792D01*
G01X257639Y5756D01*
G01X257608Y5719D01*
G01X257578Y5681D01*
G01X257550Y5641D01*
G01X257523Y5600D01*
G01X257499Y5558D01*
G01X257476Y5515D01*
G01X257455Y5471D01*
G01X257436Y5427D01*
G01X257419Y5381D01*
G01X257404Y5335D01*
G01X257390Y5288D01*
G01X257379Y5241D01*
G01X257370Y5193D01*
G01X257363Y5145D01*
G01X257357Y5097D01*
G01X257354Y5048D01*
G01X257353Y4999D01*
G01X257354Y4951D01*
G01X257357Y4902D01*
G01X257363Y4854D01*
G01X257370Y4806D01*
G01X257379Y4758D01*
G01X257390Y4711D01*
G01X257404Y4664D01*
G01X257419Y4618D01*
G01X257436Y4572D01*
G01X257455Y4528D01*
G01X257476Y4484D01*
G01X257499Y4441D01*
G01X257523Y4399D01*
G01X257550Y4358D01*
G01X257578Y4318D01*
G01X257608Y4280D01*
G01X257639Y4243D01*
G01X257672Y4207D01*
G01X257706Y4172D01*
G01X257742Y4140D01*
G01X257779Y4108D01*
G01X257818Y4078D01*
G01X257857Y4050D01*
G01X257898Y4024D01*
G01X257940Y3999D01*
G01X257983Y3977D01*
G01X258027Y3956D01*
G01X258072Y3937D01*
G01X258117Y3919D01*
G01X258163Y3904D01*
G01X258210Y3891D01*
G01X258258Y3880D01*
G01X258305Y3870D01*
G01X258353Y3863D01*
G01X258402Y3858D01*
G01X258450Y3855D01*
G01X258499Y3854D01*
G01X258547Y3855D01*
G01X258596Y3858D01*
G01X258644Y3863D01*
G01X258692Y3870D01*
G01X258740Y3880D01*
G01X258788Y3891D01*
G01X258834Y3904D01*
G01X258880Y3919D01*
G01X258926Y3937D01*
G01X258971Y3956D01*
G01X259015Y3977D01*
G01X259058Y3999D01*
G01X259099Y4024D01*
G01X259140Y4050D01*
G01X259180Y4078D01*
G01X259219Y4108D01*
G01X259256Y4140D01*
G01X259291Y4172D01*
G01X259326Y4207D01*
G01X259359Y4243D01*
G01X259390Y4280D01*
G01X259420Y4318D01*
G01X259448Y4358D01*
G01X259474Y4399D01*
G01X259499Y4441D01*
G01X259522Y4484D01*
G01X259543Y4528D01*
G01X259562Y4572D01*
G01X259579Y4618D01*
G01X259594Y4664D01*
G01X259607Y4711D01*
G01X259619Y4758D01*
G01X259628Y4806D01*
G01X259635Y4854D01*
G01X259640Y4902D01*
G01X259643Y4951D01*
G01X259644Y4999D01*
G01X259643Y5048D01*
G01X259640Y5097D01*
G01X259635Y5145D01*
G01X259628Y5193D01*
G01X259619Y5241D01*
G01X259607Y5288D01*
G01X259594Y5335D01*
G01X259579Y5381D01*
G01X259562Y5427D01*
G01X259543Y5471D01*
G01X259522Y5515D01*
G01X259499Y5558D01*
G01X259474Y5600D01*
G01X259448Y5641D01*
G01X259420Y5681D01*
G01X259390Y5719D01*
G01X259359Y5756D01*
G01X259326Y5792D01*
G01X259291Y5827D01*
G01X259256Y5859D01*
G01X259219Y5891D01*
G01X259180Y5920D01*
G01X259140Y5949D01*
G01X259099Y5975D01*
G01X259058Y6000D01*
G01X259015Y6022D01*
G01X258971Y6043D01*
G01X258926Y6062D01*
G01X258880Y6080D01*
G01X258834Y6095D01*
G01X258788Y6108D01*
G01X258740Y6119D01*
G01X258692Y6129D01*
G01X258644Y6136D01*
G01X258596Y6141D01*
G01X258547Y6144D01*
G37*

%LPD*%
G54D11*
G01X172729Y21349D02*
G01X173499Y21349D01*
G01X175269Y21349D01*
G01X187729Y21349D01*
G01X190269Y21349D01*
G01X202729Y21349D01*
G01X205269Y21349D01*
G01X217729Y21349D01*
G01X220269Y21349D01*
G01X232729Y21349D01*
G01X235269Y21349D01*
G01X237403Y21349D01*
G01X240253Y18499D01*
G01X301745Y18499D01*
G01X304595Y21349D01*
G01X306729Y21349D01*
G01X309269Y21349D01*
G01X321729Y21349D01*
G01X324269Y21349D01*
G01X336729Y21349D01*
G01X339269Y21349D01*
G01X351729Y21349D01*
G01X354269Y21349D01*
G01X366729Y21349D01*
G01X369269Y21349D01*
G01X172729Y16269D02*
G01X175269Y16269D01*
G01X187729Y16269D01*
G01X190269Y16269D01*
G01X202729Y16269D01*
G01X205269Y16269D01*
G01X217729Y16269D01*
G01X220269Y16269D01*
G01X232729Y16269D01*
G01X235269Y16269D01*
G01X235975Y16269D01*
G01X238745Y13499D01*
G01X253499Y13499D01*
G01X255999Y13499D01*
G01X303253Y13499D01*
G01X306023Y16269D01*
G01X306729Y16269D01*
G01X309269Y16269D01*
G01X317241Y16269D01*
G01X321729Y16269D01*
G01X324269Y16269D01*
G01X336729Y16269D01*
G01X339269Y16269D01*
G01X351729Y16269D01*
G01X354269Y16269D01*
G01X366729Y16269D01*
G01X369269Y16269D01*
G01X92729Y21349D02*
G01X93312Y21349D01*
G01X95269Y21349D01*
G01X107729Y21349D01*
G01X110269Y21349D01*
G01X122729Y21349D01*
G01X125269Y21349D01*
G01X137729Y21349D01*
G01X140269Y21349D01*
G01X152729Y21349D01*
G01X155269Y21349D01*
G01X449269Y21349D02*
G01X446729Y21349D01*
G01X434269Y21349D01*
G01X431729Y21349D01*
G01X419269Y21349D01*
G01X416729Y21349D01*
G01X404269Y21349D01*
G01X401729Y21349D01*
G01X389269Y21349D01*
G01X386729Y21349D01*
G54D20*
G01X155269Y21349D02*
G01X158149Y21349D01*
G01X160999Y18499D01*
G01X166999Y18499D01*
G01X169849Y21349D01*
G01X173499Y21349D01*
G01X369269Y21349D02*
G01X372149Y21349D01*
G01X374999Y18499D01*
G01X380999Y18499D01*
G01X383849Y21349D01*
G01X386729Y21349D01*
G54D11*
G01X12729Y21349D02*
G01X15269Y21349D01*
G01X27729Y21349D01*
G01X30269Y21349D01*
G01X42729Y21349D01*
G01X45269Y21349D01*
G01X57729Y21349D01*
G01X60269Y21349D01*
G01X72729Y21349D01*
G01X75269Y21349D01*
G01X78058Y21349D01*
G01X80739Y18669D01*
G01X87343Y18669D01*
G01X90010Y21336D01*
G01X93298Y21336D01*
G01X93312Y21349D01*
G01X92729Y23889D02*
G01X95269Y23889D01*
G01X107729Y23889D01*
G01X110269Y23889D01*
G01X122729Y23889D01*
G01X125269Y23889D01*
G01X137729Y23889D01*
G01X140269Y23889D01*
G01X152729Y23889D01*
G01X155269Y23889D01*
G01X172729Y23889D02*
G01X175269Y23889D01*
G01X187729Y23889D01*
G01X190269Y23889D01*
G01X202729Y23889D01*
G01X205269Y23889D01*
G01X217729Y23889D01*
G01X220269Y23889D01*
G01X232729Y23889D01*
G01X235269Y23889D01*
G01X238117Y23889D01*
G01X241007Y20999D01*
G01X300991Y20999D01*
G01X303881Y23889D01*
G01X306729Y23889D01*
G01X309269Y23889D01*
G01X321729Y23889D01*
G01X324269Y23889D01*
G01X336729Y23889D01*
G01X339269Y23889D01*
G01X351729Y23889D01*
G01X354269Y23889D01*
G01X366729Y23889D01*
G01X369269Y23889D01*
G01X386729Y23889D02*
G01X387499Y23889D01*
G01X389269Y23889D01*
G01X401729Y23889D01*
G01X404269Y23889D01*
G01X416729Y23889D01*
G01X419269Y23889D01*
G01X431729Y23889D01*
G01X434269Y23889D01*
G01X446729Y23889D01*
G01X449269Y23889D01*
G54D20*
G01X155269Y23889D02*
G01X159109Y23889D01*
G01X161999Y20999D01*
G01X165999Y20999D01*
G01X168889Y23889D01*
G01X172729Y23889D01*
G01X369269Y23889D02*
G01X373109Y23889D01*
G01X375999Y20999D01*
G01X379999Y20999D01*
G01X382889Y23889D01*
G01X387499Y23889D01*
G54D11*
G01X95269Y23889D02*
G01X95330Y23889D01*
G01X95344Y23876D01*
G01X89121Y23876D01*
G01X86200Y20955D01*
G01X81882Y20955D01*
G01X78961Y23876D01*
G01X75283Y23876D01*
G01X75269Y23889D01*
G01X72729Y23889D01*
G01X60269Y23889D01*
G01X57729Y23889D01*
G01X45269Y23889D01*
G01X42729Y23889D01*
G01X30269Y23889D01*
G01X27729Y23889D01*
G01X15269Y23889D01*
G01X12729Y23889D01*
G01X449269Y16269D02*
G01X446729Y16269D01*
G01X434269Y16269D01*
G01X431729Y16269D01*
G01X419269Y16269D01*
G01X416729Y16269D01*
G01X404269Y16269D01*
G01X401729Y16269D01*
G01X389269Y16269D01*
G01X386729Y16269D01*
G01X92729Y16269D02*
G01X93312Y16269D01*
G01X95269Y16269D01*
G01X107729Y16269D01*
G01X110269Y16269D01*
G01X122729Y16269D01*
G01X125269Y16269D01*
G01X137729Y16269D01*
G01X140269Y16269D01*
G01X152729Y16269D01*
G01X155269Y16269D01*
G54D20*
G01X155269Y16269D02*
G01X156229Y16269D01*
G01X158999Y13499D01*
G01X168999Y13499D01*
G01X171769Y16269D01*
G01X172729Y16269D01*
G01X369269Y16269D02*
G01X370229Y16269D01*
G01X372999Y13499D01*
G01X382999Y13499D01*
G01X385769Y16269D01*
G01X386729Y16269D01*
G54D11*
G01X93312Y16269D02*
G01X93298Y16256D01*
G01X91788Y16256D01*
G01X89629Y14097D01*
G01X78453Y14097D01*
G01X76280Y16269D01*
G01X75269Y16269D01*
G01X72729Y16269D01*
G01X60269Y16269D01*
G01X57729Y16269D01*
G01X45269Y16269D01*
G01X42729Y16269D01*
G01X30269Y16269D01*
G01X27729Y16269D01*
G01X15269Y16269D01*
G01X12729Y16269D01*
G54D13*
G01X12729Y16269D02*
G01X7701Y16269D01*
G01X6952Y17018D01*
G01X449269Y16269D02*
G01X452962Y16269D01*
G01X454245Y14986D01*
G54D11*
G01X449269Y18809D02*
G01X446729Y18809D01*
G01X434269Y18809D01*
G01X431729Y18809D01*
G01X419269Y18809D01*
G01X416729Y18809D01*
G01X404269Y18809D01*
G01X401729Y18809D01*
G01X389269Y18809D01*
G01X386729Y18809D01*
G01X12729Y18809D02*
G01X15269Y18809D01*
G01X27729Y18809D01*
G01X30269Y18809D01*
G01X42729Y18809D01*
G01X45269Y18809D01*
G01X57729Y18809D01*
G01X60269Y18809D01*
G01X72729Y18809D01*
G01X75269Y18809D01*
G01X75283Y18796D01*
G01X77183Y18796D01*
G01X79596Y16383D01*
G01X88486Y16383D01*
G01X90913Y18809D01*
G01X92729Y18809D01*
G01X95269Y18809D01*
G01X107729Y18809D01*
G01X110269Y18809D01*
G01X122729Y18809D01*
G01X125269Y18809D01*
G01X137729Y18809D01*
G01X140269Y18809D01*
G01X152729Y18809D01*
G01X155269Y18809D01*
G54D20*
G01X155269Y18809D02*
G01X157189Y18809D01*
G01X159999Y15999D01*
G01X167999Y15999D01*
G01X170809Y18809D01*
G01X173499Y18809D01*
G01X369269Y18809D02*
G01X371189Y18809D01*
G01X373999Y15999D01*
G01X381999Y15999D01*
G01X384809Y18809D01*
G01X386729Y18809D01*
G54D13*
G01X12729Y18809D02*
G01X9479Y18809D01*
G01X7206Y21082D01*
G01X449269Y18809D02*
G01X454232Y18809D01*
G01X454245Y18796D01*
G54D11*
G01X449269Y6109D02*
G01X446729Y6109D01*
G01X434269Y6109D01*
G01X431729Y6109D01*
G01X419269Y6109D01*
G01X416729Y6109D01*
G01X404269Y6109D01*
G01X401729Y6109D01*
G01X389269Y6109D01*
G01X386729Y6109D01*
G01X369269Y6109D02*
G01X366729Y6109D01*
G01X354269Y6109D01*
G01X351729Y6109D01*
G01X339269Y6109D01*
G01X336729Y6109D01*
G01X324269Y6109D01*
G01X321729Y6109D01*
G01X317749Y6109D01*
G01X309269Y6109D01*
G01X306729Y6109D01*
G01X155269Y6109D02*
G01X152729Y6109D01*
G01X140269Y6109D01*
G01X137729Y6109D01*
G01X125269Y6109D01*
G01X122729Y6109D01*
G01X110269Y6109D01*
G01X107729Y6109D01*
G01X95269Y6109D01*
G01X93312Y6109D01*
G01X92729Y6109D01*
G54D20*
G01X155269Y6109D02*
G01X159109Y6109D01*
G01X161999Y8999D01*
G01X165999Y8999D01*
G01X168889Y6109D01*
G01X172729Y6109D01*
G01X369269Y6109D02*
G01X373109Y6109D01*
G01X375999Y8999D01*
G01X379999Y8999D01*
G01X382889Y6109D01*
G01X386729Y6109D01*
G54D13*
G01X306619Y5999D02*
G01X306729Y6109D01*
G01X12729Y6109D02*
G01X10944Y6109D01*
G01X6952Y10101D01*
G01X5555Y10101D01*
G01X449269Y6109D02*
G01X451085Y6109D01*
G01X457547Y12573D01*
G54D11*
G01X12729Y6109D02*
G01X15269Y6109D01*
G01X27729Y6109D01*
G01X30269Y6109D01*
G01X42729Y6109D01*
G01X45269Y6109D01*
G01X57729Y6109D01*
G01X60269Y6109D01*
G01X72729Y6109D01*
G01X75269Y6109D01*
G01X79229Y6109D01*
G01X82009Y8890D01*
G01X85692Y8890D01*
G01X88486Y6096D01*
G01X93298Y6096D01*
G01X93312Y6109D01*
G01X172729Y6109D02*
G01X175269Y6109D01*
G01X187729Y6109D01*
G01X190269Y6109D01*
G01X202729Y6109D01*
G01X205269Y6109D01*
G01X217729Y6109D01*
G01X220269Y6109D01*
G01X232729Y6109D01*
G01X235269Y6109D01*
G01X237609Y6109D01*
G01X240499Y8999D01*
G01X249999Y8999D01*
G01X251499Y8999D01*
G01X301499Y8999D01*
G01X304499Y5999D01*
G01X306619Y5999D01*
G01X172729Y18809D02*
G01X173499Y18809D01*
G01X175269Y18809D01*
G01X187729Y18809D01*
G01X190269Y18809D01*
G01X202729Y18809D01*
G01X205269Y18809D01*
G01X217729Y18809D01*
G01X220269Y18809D01*
G01X232729Y18809D01*
G01X235269Y18809D01*
G01X236689Y18809D01*
G01X239499Y15999D01*
G01X266864Y15999D01*
G01X300896Y15999D01*
G01X302499Y15999D01*
G01X305309Y18809D01*
G01X306729Y18809D01*
G01X309269Y18809D01*
G01X317241Y18809D01*
G01X321729Y18809D01*
G01X324269Y18809D01*
G01X336729Y18809D01*
G01X339269Y18809D01*
G01X351729Y18809D01*
G01X354269Y18809D01*
G01X366729Y18809D01*
G01X369269Y18809D01*
G54D19*
G01X140269Y6109D03*
G54D20*
G01X137729Y6109D03*
G01X140269Y8649D03*
G01X137729Y8649D03*
G01X140269Y11189D03*
G01X137729Y11189D03*
G01X140269Y13729D03*
G01X137729Y13729D03*
G01X140269Y16269D03*
G01X137729Y16269D03*
G01X140269Y18809D03*
G01X137729Y18809D03*
G01X140269Y21349D03*
G01X137729Y21349D03*
G01X140269Y23889D03*
G01X137729Y23889D03*
G54D19*
G01X155269Y6109D03*
G54D20*
G01X152729Y6109D03*
G01X155269Y8649D03*
G01X152729Y8649D03*
G01X155269Y11189D03*
G01X152729Y11189D03*
G01X155269Y13729D03*
G01X152729Y13729D03*
G01X155269Y16269D03*
G01X152729Y16269D03*
G01X155269Y18809D03*
G01X152729Y18809D03*
G01X155269Y21349D03*
G01X152729Y21349D03*
G01X155269Y23889D03*
G01X152729Y23889D03*
G54D19*
G01X175269Y6109D03*
G54D20*
G01X172729Y6109D03*
G01X175269Y8649D03*
G01X172729Y8649D03*
G01X175269Y11189D03*
G01X172729Y11189D03*
G01X175269Y13729D03*
G01X172729Y13729D03*
G01X175269Y16269D03*
G01X172729Y16269D03*
G01X175269Y18809D03*
G01X172729Y18809D03*
G01X175269Y21349D03*
G01X172729Y21349D03*
G01X175269Y23889D03*
G01X172729Y23889D03*
G54D19*
G01X190269Y6109D03*
G54D20*
G01X187729Y6109D03*
G01X190269Y8649D03*
G01X187729Y8649D03*
G01X190269Y11189D03*
G01X187729Y11189D03*
G01X190269Y13729D03*
G01X187729Y13729D03*
G01X190269Y16269D03*
G01X187729Y16269D03*
G01X190269Y18809D03*
G01X187729Y18809D03*
G01X190269Y21349D03*
G01X187729Y21349D03*
G01X190269Y23889D03*
G01X187729Y23889D03*
G54D19*
G01X205269Y6109D03*
G54D20*
G01X202729Y6109D03*
G01X205269Y8649D03*
G01X202729Y8649D03*
G01X205269Y11189D03*
G01X202729Y11189D03*
G01X205269Y13729D03*
G01X202729Y13729D03*
G01X205269Y16269D03*
G01X202729Y16269D03*
G01X205269Y18809D03*
G01X202729Y18809D03*
G01X205269Y21349D03*
G01X202729Y21349D03*
G01X205269Y23889D03*
G01X202729Y23889D03*
G54D19*
G01X125269Y6109D03*
G54D20*
G01X122729Y6109D03*
G01X125269Y8649D03*
G01X122729Y8649D03*
G01X125269Y11189D03*
G01X122729Y11189D03*
G01X125269Y13729D03*
G01X122729Y13729D03*
G01X125269Y16269D03*
G01X122729Y16269D03*
G01X125269Y18809D03*
G01X122729Y18809D03*
G01X125269Y21349D03*
G01X122729Y21349D03*
G01X125269Y23889D03*
G01X122729Y23889D03*
G54D19*
G01X110269Y6109D03*
G54D20*
G01X107729Y6109D03*
G01X110269Y8649D03*
G01X107729Y8649D03*
G01X110269Y11189D03*
G01X107729Y11189D03*
G01X110269Y13729D03*
G01X107729Y13729D03*
G01X110269Y16269D03*
G01X107729Y16269D03*
G01X110269Y18809D03*
G01X107729Y18809D03*
G01X110269Y21349D03*
G01X107729Y21349D03*
G01X110269Y23889D03*
G01X107729Y23889D03*
G54D19*
G01X95269Y6109D03*
G54D20*
G01X92729Y6109D03*
G01X95269Y8649D03*
G01X92729Y8649D03*
G01X95269Y11189D03*
G01X92729Y11189D03*
G01X95269Y13729D03*
G01X92729Y13729D03*
G01X95269Y16269D03*
G01X92729Y16269D03*
G01X95269Y18809D03*
G01X92729Y18809D03*
G01X95269Y21349D03*
G01X92729Y21349D03*
G01X95269Y23889D03*
G01X92729Y23889D03*
G54D19*
G01X235269Y6109D03*
G54D20*
G01X232729Y6109D03*
G01X235269Y8649D03*
G01X232729Y8649D03*
G01X235269Y11189D03*
G01X232729Y11189D03*
G01X235269Y13729D03*
G01X232729Y13729D03*
G01X235269Y16269D03*
G01X232729Y16269D03*
G01X235269Y18809D03*
G01X232729Y18809D03*
G01X235269Y21349D03*
G01X232729Y21349D03*
G01X235269Y23889D03*
G01X232729Y23889D03*
G54D19*
G01X309269Y6109D03*
G54D20*
G01X306729Y6109D03*
G01X309269Y8649D03*
G01X306729Y8649D03*
G01X309269Y11189D03*
G01X306729Y11189D03*
G01X309269Y13729D03*
G01X306729Y13729D03*
G01X309269Y16269D03*
G01X306729Y16269D03*
G01X309269Y18809D03*
G01X306729Y18809D03*
G01X309269Y21349D03*
G01X306729Y21349D03*
G01X309269Y23889D03*
G01X306729Y23889D03*
G54D19*
G01X220269Y6109D03*
G54D20*
G01X217729Y6109D03*
G01X220269Y8649D03*
G01X217729Y8649D03*
G01X220269Y11189D03*
G01X217729Y11189D03*
G01X220269Y13729D03*
G01X217729Y13729D03*
G01X220269Y16269D03*
G01X217729Y16269D03*
G01X220269Y18809D03*
G01X217729Y18809D03*
G01X220269Y21349D03*
G01X217729Y21349D03*
G01X220269Y23889D03*
G01X217729Y23889D03*
G54D19*
G01X419269Y6109D03*
G54D20*
G01X416729Y6109D03*
G01X419269Y8649D03*
G01X416729Y8649D03*
G01X419269Y11189D03*
G01X416729Y11189D03*
G01X419269Y13729D03*
G01X416729Y13729D03*
G01X419269Y16269D03*
G01X416729Y16269D03*
G01X419269Y18809D03*
G01X416729Y18809D03*
G01X419269Y21349D03*
G01X416729Y21349D03*
G01X419269Y23889D03*
G01X416729Y23889D03*
G54D19*
G01X324269Y6109D03*
G54D20*
G01X321729Y6109D03*
G01X324269Y8649D03*
G01X321729Y8649D03*
G01X324269Y11189D03*
G01X321729Y11189D03*
G01X324269Y13729D03*
G01X321729Y13729D03*
G01X324269Y16269D03*
G01X321729Y16269D03*
G01X324269Y18809D03*
G01X321729Y18809D03*
G01X324269Y21349D03*
G01X321729Y21349D03*
G01X324269Y23889D03*
G01X321729Y23889D03*
G54D19*
G01X404269Y6109D03*
G54D20*
G01X401729Y6109D03*
G01X404269Y8649D03*
G01X401729Y8649D03*
G01X404269Y11189D03*
G01X401729Y11189D03*
G01X404269Y13729D03*
G01X401729Y13729D03*
G01X404269Y16269D03*
G01X401729Y16269D03*
G01X404269Y18809D03*
G01X401729Y18809D03*
G01X404269Y21349D03*
G01X401729Y21349D03*
G01X404269Y23889D03*
G01X401729Y23889D03*
G54D19*
G01X339269Y6109D03*
G54D20*
G01X336729Y6109D03*
G01X339269Y8649D03*
G01X336729Y8649D03*
G01X339269Y11189D03*
G01X336729Y11189D03*
G01X339269Y13729D03*
G01X336729Y13729D03*
G01X339269Y16269D03*
G01X336729Y16269D03*
G01X339269Y18809D03*
G01X336729Y18809D03*
G01X339269Y21349D03*
G01X336729Y21349D03*
G01X339269Y23889D03*
G01X336729Y23889D03*
G54D19*
G01X389269Y6109D03*
G54D20*
G01X386729Y6109D03*
G01X389269Y8649D03*
G01X386729Y8649D03*
G01X389269Y11189D03*
G01X386729Y11189D03*
G01X389269Y13729D03*
G01X386729Y13729D03*
G01X389269Y16269D03*
G01X386729Y16269D03*
G01X389269Y18809D03*
G01X386729Y18809D03*
G01X389269Y21349D03*
G01X386729Y21349D03*
G01X389269Y23889D03*
G01X386729Y23889D03*
G54D19*
G01X354269Y6109D03*
G54D20*
G01X351729Y6109D03*
G01X354269Y8649D03*
G01X351729Y8649D03*
G01X354269Y11189D03*
G01X351729Y11189D03*
G01X354269Y13729D03*
G01X351729Y13729D03*
G01X354269Y16269D03*
G01X351729Y16269D03*
G01X354269Y18809D03*
G01X351729Y18809D03*
G01X354269Y21349D03*
G01X351729Y21349D03*
G01X354269Y23889D03*
G01X351729Y23889D03*
G54D19*
G01X369269Y6109D03*
G54D20*
G01X366729Y6109D03*
G01X369269Y8649D03*
G01X366729Y8649D03*
G01X369269Y11189D03*
G01X366729Y11189D03*
G01X369269Y13729D03*
G01X366729Y13729D03*
G01X369269Y16269D03*
G01X366729Y16269D03*
G01X369269Y18809D03*
G01X366729Y18809D03*
G01X369269Y21349D03*
G01X366729Y21349D03*
G01X369269Y23889D03*
G01X366729Y23889D03*
G54D19*
G01X434269Y6109D03*
G54D20*
G01X431729Y6109D03*
G01X434269Y8649D03*
G01X431729Y8649D03*
G01X434269Y11189D03*
G01X431729Y11189D03*
G01X434269Y13729D03*
G01X431729Y13729D03*
G01X434269Y16269D03*
G01X431729Y16269D03*
G01X434269Y18809D03*
G01X431729Y18809D03*
G01X434269Y21349D03*
G01X431729Y21349D03*
G01X434269Y23889D03*
G01X431729Y23889D03*
G54D19*
G01X449269Y6109D03*
G54D20*
G01X446729Y6109D03*
G01X449269Y8649D03*
G01X446729Y8649D03*
G01X449269Y11189D03*
G01X446729Y11189D03*
G01X449269Y13729D03*
G01X446729Y13729D03*
G01X449269Y16269D03*
G01X446729Y16269D03*
G01X449269Y18809D03*
G01X446729Y18809D03*
G01X449269Y21349D03*
G01X446729Y21349D03*
G01X449269Y23889D03*
G01X446729Y23889D03*
G36*
G01X247610Y5888D02*
G01X249388Y5888D01*
G01X249388Y4110D01*
G01X247610Y4110D01*
G01X247610Y5888D01*
G37*
G54D22*
G01X253499Y4999D03*
G01X258499Y4999D03*
G01X263499Y4999D03*
G54D21*
G01X263499Y24999D03*
G54D22*
G01X258499Y24999D03*
G01X253499Y24999D03*
G01X248499Y24999D03*
G54D19*
G01X75269Y6109D03*
G54D20*
G01X72729Y6109D03*
G01X75269Y8649D03*
G01X72729Y8649D03*
G01X75269Y11189D03*
G01X72729Y11189D03*
G01X75269Y13729D03*
G01X72729Y13729D03*
G01X75269Y16269D03*
G01X72729Y16269D03*
G01X75269Y18809D03*
G01X72729Y18809D03*
G01X75269Y21349D03*
G01X72729Y21349D03*
G01X75269Y23889D03*
G01X72729Y23889D03*
G54D19*
G01X60269Y6109D03*
G54D20*
G01X57729Y6109D03*
G01X60269Y8649D03*
G01X57729Y8649D03*
G01X60269Y11189D03*
G01X57729Y11189D03*
G01X60269Y13729D03*
G01X57729Y13729D03*
G01X60269Y16269D03*
G01X57729Y16269D03*
G01X60269Y18809D03*
G01X57729Y18809D03*
G01X60269Y21349D03*
G01X57729Y21349D03*
G01X60269Y23889D03*
G01X57729Y23889D03*
G54D19*
G01X45269Y6109D03*
G54D20*
G01X42729Y6109D03*
G01X45269Y8649D03*
G01X42729Y8649D03*
G01X45269Y11189D03*
G01X42729Y11189D03*
G01X45269Y13729D03*
G01X42729Y13729D03*
G01X45269Y16269D03*
G01X42729Y16269D03*
G01X45269Y18809D03*
G01X42729Y18809D03*
G01X45269Y21349D03*
G01X42729Y21349D03*
G01X45269Y23889D03*
G01X42729Y23889D03*
G54D19*
G01X30269Y6109D03*
G54D20*
G01X27729Y6109D03*
G01X30269Y8649D03*
G01X27729Y8649D03*
G01X30269Y11189D03*
G01X27729Y11189D03*
G01X30269Y13729D03*
G01X27729Y13729D03*
G01X30269Y16269D03*
G01X27729Y16269D03*
G01X30269Y18809D03*
G01X27729Y18809D03*
G01X30269Y21349D03*
G01X27729Y21349D03*
G01X30269Y23889D03*
G01X27729Y23889D03*
G54D19*
G01X15269Y6109D03*
G54D20*
G01X12729Y6109D03*
G01X15269Y8649D03*
G01X12729Y8649D03*
G01X15269Y11189D03*
G01X12729Y11189D03*
G01X15269Y13729D03*
G01X12729Y13729D03*
G01X15269Y16269D03*
G01X12729Y16269D03*
G01X15269Y18809D03*
G01X12729Y18809D03*
G01X15269Y21349D03*
G01X12729Y21349D03*
G01X15269Y23889D03*
G01X12729Y23889D03*
G54D14*
G01X238999Y27499D03*
G01X242999Y10999D03*
G01X238999Y1999D03*
G01X252443Y11938D03*
G01X265143Y11684D03*
G01X300499Y11500D03*
G01X302499Y27499D03*
G01X260999Y27499D03*
G01X260999Y2999D03*
G01X302499Y1999D03*
G54D15*
G01X4999Y24999D03*
G01X455999Y4999D03*
G54D14*
G01X253499Y13499D03*
G01X255999Y13499D03*
G54D16*
G01X317241Y16269D03*
G01X6952Y17018D03*
G01X454245Y14986D03*
G54D14*
G01X300896Y15999D03*
G01X266864Y15999D03*
G54D16*
G01X317241Y18809D03*
G01X7206Y21082D03*
G01X454245Y18796D03*
G54D14*
G01X249999Y8999D03*
G01X251499Y8999D03*
G54D16*
G01X317749Y6109D03*
G01X5555Y10101D03*
G01X457547Y12573D03*
M00*
M02*
